# xmcd
#
# Track frame offsets:
#	150
#	20633
#	38792
#	57433
#	78758
#	98813
#	124278
#	144731
#	167570
#	190377
#	215406
#	237792
#	256997
#	280666
#
# Disc length: 3950 seconds
#
# Revision: 213257297
# Processed by: cddbd v1.5.2PL0 Copyright (c) Steve Scherf et al.
# Submitted via: EZCDAudioConverter 7.1.0.1
#
DISCID=c30f6c0e
DTITLE=刘若英 - 情歌集
DYEAR=2002
DGENRE=CPop
TTITLE0=年华
TTITLE1=收货
TTITLE2=对面男生的房间
TTITLE3=很爱很爱你
TTITLE4=我等你
TTITLE5=后来
TTITLE6=花季末了
TTITLE7=为爱痴狂
TTITLE8=为了一把钥匙给你
TTITLE9=游子
TTITLE10=好久好久
TTITLE11=坦白
TTITLE12=到处乱走
TTITLE13=Love
EXTD=
EXTT0=
EXTT1=
EXTT2=
EXTT3=
EXTT4=
EXTT5=
EXTT6=
EXTT7=
EXTT8=
EXTT9=
EXTT10=
EXTT11=
EXTT12=
EXTT13=
PLAYORDER=
